<svg id="SvgjsSvg1001" width="288" height="288" xmlns="http://www.w3.org/2000/svg" version="1.1" xmlns:xlink="http://www.w3.org/1999/xlink" xmlns:svgjs="http://svgjs.com/svgjs"><defs id="SvgjsDefs1002"></defs><g id="SvgjsG1008" transform="matrix(0.9167,0,0,0.9167,11.995106577301044,11.995106577301044)"><svg xmlns="http://www.w3.org/2000/svg" enable-background="new 0 0 32 32" viewBox="0 0 32 32" width="288" height="288"><path d="M27.414,24.586l-5.077-5.077C23.386,17.928,24,16.035,24,14c0-5.514-4.486-10-10-10S4,8.486,4,14  s4.486,10,10,10c2.035,0,3.928-0.614,5.509-1.663l5.077,5.077c0.78,0.781,2.048,0.781,2.828,0  C28.195,26.633,28.195,25.367,27.414,24.586z M7,14c0-3.86,3.14-7,7-7s7,3.14,7,7s-3.14,7-7,7S7,17.86,7,14z" fill="#fb9b14" class="color000 svgShape"></path></svg></g></svg>