<svg id="SvgjsSvg1001" width="288" height="288" xmlns="http://www.w3.org/2000/svg" version="1.1" xmlns:xlink="http://www.w3.org/1999/xlink" xmlns:svgjs="http://svgjs.com/svgjs"><defs id="SvgjsDefs1002"></defs><g id="SvgjsG1008" transform="matrix(0.9167,0,0,0.9167,11.981891162973653,12.006855077505122)"><svg xmlns="http://www.w3.org/2000/svg" width="288" height="288" version="1.0" viewBox="0 0 500 500"><path d="M2165 4974 c-256 -37 -593 -144 -813 -258 -99 -51 -287 -166 -302-185 -3 -3 -61 -51 -130 -106 -180 -143 -198 -162 -351 -352 -218 -273 -321
-459 -423 -763 -111 -329 -143 -570 -127 -931 8 -188 15 -248 41 -374 77 -363
229 -716 406 -945 217 -281 274 -342 439 -473 61 -48 127 -101 148 -118 217
-176 649 -358 1009 -424 191 -35 708 -35 883 0 323 64 653 193 888 348 124 81
315 233 410 326 94 91 271 310 357 441 137 209 242 462 318 767 58 228 65 303
60 633 -4 243 -8 299 -26 381 -86 391 -188 655 -353 909 -34 52 -64 97 -68
100 -3 3 -59 71 -124 152 -125 156 -172 202 -358 349 -284 224 -521 345 -889
453 -216 63 -268 69 -630 72 -184 1 -348 0 -365 -2z m1094 -1418 c123 -16 222
-61 291 -131 l42 -43 69 19 c93 26 192 64 256 99 l54 29 -7 -32 c-19 -91 -98
-196 -208 -278 l-39 -29 34 6 c91 16 164 36 220 59 35 14 66 25 71 25 8 0 -7
-23 -77 -118 -22 -31 -109 -111 -167 -156 l-38 -28 0 -84 c0 -205 -57 -473
-141 -657 -28 -61 -59 -134 -69 -160 -41 -107 -168 -272 -337 -439 -150 -149
-170 -163 -415 -287 -120 -61 -185 -85 -309 -117 -369 -93 -758 -66 -1094 75
-114 49 -265 128 -265 140 0 3 73 7 163 8 174 1 252 14 377 59 114 40 216 95
307 164 21 17 20 17 -57 33 -155 30 -316 132 -401 255 -31 44 -68 119 -69 138
0 8 35 11 108 11 59 0 118 3 131 7 20 7 15 11 -40 30 -221 74 -390 285 -407
508 l-5 67 64 -20 c69 -22 168 -49 183 -49 5 0 -18 26 -51 58 -157 150 -220
346 -180 558 15 81 53 175 72 181 6 2 49 -40 95 -93 47 -52 114 -119 150 -149
75 -61 292 -193 395 -240 133 -61 323 -115 474 -134 134 -17 131 -19 119 32
-28 121 17 313 107 445 93 139 212 215 373 237 53 7 102 13 107 14 6 0 57 -6
114 -13z" transform="matrix(.1 0 0 -.1 0 500)" fill="#ffffff" class="color000 svgShape"></path></svg></g></svg>